<?xml version="1.0" standalone="no"?>
<!DOCTYPE svg PUBLIC "-//W3C//DTD SVG 20010904//EN"
 "http://www.w3.org/TR/2001/REC-SVG-20010904/DTD/svg10.dtd">
<svg version="1.0" xmlns="http://www.w3.org/2000/svg"
 width="426.000000pt" height="215.000000pt" viewBox="0 0 426.000000 215.000000"
 preserveAspectRatio="xMidYMid meet">

<g transform="translate(0.000000,215.000000) scale(0.100000,-0.100000)"
fill="#000000" stroke="none">
<path d="M1999 1699 c-84 -49 -180 -103 -211 -120 l-58 -32 0 -246 0 -246 203
-115 c111 -63 209 -116 217 -117 8 -2 107 50 220 115 l205 118 3 244 2 245
-102 58 c-57 31 -153 86 -214 120 l-110 64 -155 -88z m124 -60 c-16 -15 -272
-149 -286 -149 -8 0 -22 9 -33 21 -16 18 -16 22 -4 29 8 5 85 49 170 98 l155
89 3 -40 c2 -22 0 -43 -5 -48z m199 -94 c74 -41 141 -75 147 -75 7 0 25 9 39
21 l27 21 3 -183 c1 -100 0 -184 -2 -187 -3 -2 -18 5 -34 17 l-30 21 -163 -91
c-90 -50 -169 -92 -175 -92 -6 0 -75 35 -152 77 -84 46 -147 75 -154 70 -7 -4
-23 -16 -35 -27 l-23 -20 0 191 c0 106 4 192 8 192 5 0 17 -9 27 -20 10 -11
23 -20 29 -20 6 0 83 40 171 89 88 49 165 90 171 90 6 1 72 -33 146 -74z m183
-439 c17 -13 28 -26 25 -29 -8 -8 -339 -197 -345 -197 -3 0 -5 21 -5 48 l0 47
138 77 c75 42 142 77 147 77 6 1 24 -10 40 -23z"/>
<path d="M1998 1469 c-30 -17 -20 -27 21 -22 21 3 41 1 44 -3 3 -5 -2 -26 -10
-46 -11 -27 -24 -40 -49 -48 -58 -20 -86 -87 -45 -110 31 -16 68 7 92 57 14
30 27 43 41 43 18 0 20 -4 14 -44 -6 -36 -4 -46 9 -54 14 -7 15 -15 7 -46 -15
-53 -3 -75 33 -66 6 2 37 5 69 9 49 5 62 11 79 33 18 24 19 31 8 54 -11 25
-10 30 13 51 28 26 35 73 13 91 -7 6 -31 10 -53 7 -21 -2 -42 -4 -46 -4 -5 -1
-8 -6 -8 -12 0 -13 -71 -99 -82 -99 -24 0 27 156 55 172 23 13 21 38 -3 38
-14 0 -29 -16 -48 -50 -20 -37 -33 -50 -49 -50 -27 0 -27 -3 -8 49 13 38 13
41 -5 51 -24 13 -70 12 -92 -1z m319 -134 c7 -20 -24 -55 -49 -55 -20 0 -23
21 -8 51 13 23 48 25 57 4z m-307 -50 c-14 -17 -40 -20 -40 -5 0 6 10 20 22
32 21 21 23 21 26 5 2 -10 -2 -24 -8 -32z m268 -63 c5 -30 -14 -52 -44 -52
-28 0 -28 -2 -9 44 18 42 48 46 53 8z m-88 8 c0 -18 -30 -70 -40 -70 -14 0
-12 16 5 50 15 29 35 40 35 20z"/>
<path d="M1428 591 c3 -108 1 -120 -15 -124 -10 -3 -2 -5 17 -6 23 0 30 2 21
8 -8 5 -12 24 -11 52 5 80 0 189 -7 189 -5 0 -7 -54 -5 -119z"/>
<path d="M2268 698 c17 -17 17 -225 0 -231 -7 -2 16 -4 52 -3 59 1 65 3 80 28
13 25 13 31 -1 55 -13 25 -21 28 -62 27 l-47 0 0 68 c0 57 -3 68 -17 68 -13 0
-14 -3 -5 -12z m122 -149 c16 -28 5 -66 -21 -74 -53 -17 -95 27 -69 74 15 29
75 29 90 0z"/>
<path d="M2458 698 c8 -8 12 -48 12 -115 0 -87 -3 -104 -17 -112 -15 -8 -11
-10 17 -10 19 0 29 3 23 6 -10 3 -13 38 -13 124 0 105 -2 119 -17 119 -13 0
-14 -3 -5 -12z"/>
<path d="M1490 572 c33 -7 35 -9 38 -54 2 -38 0 -47 -15 -51 -10 -3 -2 -5 17
-6 19 0 30 3 23 7 -6 4 -13 30 -15 57 l-3 50 -40 2 -40 1 35 -6z"/>
<path d="M1606 558 c-33 -46 -6 -98 50 -98 37 0 74 28 74 58 0 36 -29 62 -70
62 -29 0 -43 -6 -54 -22z m100 -13 c15 -23 15 -27 0 -50 -27 -41 -106 -24
-106 23 0 50 78 70 106 27z"/>
<path d="M1768 573 c7 -3 12 -24 12 -53 0 -29 -5 -50 -12 -53 -7 -3 3 -5 22
-5 19 0 27 2 17 5 -15 4 -18 13 -16 46 3 61 1 67 -18 66 -11 0 -13 -3 -5 -6z"/>
<path d="M1845 572 c27 -6 30 -11 33 -51 2 -28 -1 -47 -10 -52 -9 -6 -3 -9 17
-9 17 0 25 4 18 8 -6 4 -13 30 -15 57 -3 49 -3 50 -38 52 -34 1 -34 1 -5 -5z"/>
<path d="M1952 573 c13 -3 18 -17 20 -56 3 -49 5 -52 32 -55 16 -2 32 0 37 5
4 4 -6 8 -24 8 -32 0 -32 1 -35 53 -3 46 -5 52 -25 51 -16 -1 -17 -3 -5 -6z"/>
<path d="M2053 573 c15 -4 18 -13 16 -46 -3 -61 -1 -67 19 -66 10 0 12 3 5 6
-8 3 -13 25 -13 59 0 50 -2 54 -22 53 -19 -1 -19 -2 -5 -6z"/>
<path d="M2143 573 c13 -3 17 -15 17 -53 0 -38 -4 -50 -17 -53 -10 -3 -2 -5
17 -5 19 0 29 2 23 5 -16 6 -17 57 -3 84 6 10 18 19 28 20 11 0 12 2 4 6 -7 3
-19 -1 -27 -7 -11 -9 -15 -9 -15 -1 0 6 -10 10 -22 10 -17 -1 -19 -2 -5 -6z"/>
<path d="M2546 558 c-32 -45 -6 -98 47 -98 38 0 50 7 66 37 9 18 9 29 -4 53
-13 26 -21 30 -55 30 -29 0 -43 -6 -54 -22z m92 0 c7 -7 12 -24 12 -38 0 -33
-17 -50 -49 -50 -28 0 -61 26 -61 48 0 41 69 69 98 40z"/>
<path d="M2706 555 c-21 -32 -20 -47 5 -74 19 -20 28 -22 65 -17 38 5 44 3 44
-13 0 -10 -10 -31 -21 -46 -18 -22 -27 -26 -51 -21 -18 3 -27 2 -23 -4 13 -20
63 -11 84 16 17 22 21 41 21 100 0 43 4 74 11 76 6 2 -18 4 -54 6 -59 1 -67
-1 -81 -23z m100 -10 c15 -23 15 -27 0 -50 -11 -17 -26 -25 -44 -25 -35 0 -52
16 -52 50 0 34 17 50 52 50 18 0 33 -8 44 -25z"/>
</g>
</svg>
