<?xml version="1.0" standalone="no"?>
<!DOCTYPE svg PUBLIC "-//W3C//DTD SVG 20010904//EN"
 "http://www.w3.org/TR/2001/REC-SVG-20010904/DTD/svg10.dtd">
<svg version="1.0" xmlns="http://www.w3.org/2000/svg"
 width="264.000000pt" height="250.000000pt" viewBox="0 0 264.000000 250.000000"
 preserveAspectRatio="xMidYMid meet">

<g transform="translate(0.000000,250.000000) scale(0.100000,-0.100000)"
fill="#000000" stroke="none">
<path d="M1315 2386 c-22 -12 -181 -103 -353 -200 l-312 -178 2 -415 3 -415
230 -130 c127 -72 286 -159 354 -196 l123 -65 97 49 c53 27 210 114 349 193
186 106 256 151 263 168 5 13 9 201 9 417 l0 393 -77 46 c-43 25 -181 104
-308 175 -126 71 -250 141 -275 156 -55 31 -55 31 -105 2z m5 -146 l0 -70 -42
-27 c-45 -28 -319 -172 -400 -210 l-47 -22 -33 23 c-66 44 -63 47 234 218 150
86 276 157 281 158 4 0 7 -31 7 -70z m339 -239 c126 -67 233 -121 238 -121 6
0 30 13 54 30 24 16 47 30 52 30 4 0 7 -137 7 -305 0 -168 -4 -305 -8 -305 -5
0 -29 14 -55 31 l-46 31 -233 -130 c-128 -71 -257 -141 -286 -156 l-52 -26
-143 73 c-262 137 -344 177 -358 177 -8 0 -34 -16 -59 -36 l-45 -36 -3 254
c-3 259 3 378 18 378 5 0 25 -14 44 -31 23 -19 42 -28 53 -25 10 3 140 71 288
151 157 84 278 144 288 141 10 -2 121 -59 246 -125z m299 -737 c23 -20 40 -39
37 -44 -14 -23 -564 -332 -577 -324 -4 3 -8 38 -8 77 l0 72 173 97 c236 133
286 158 311 158 12 0 41 -16 64 -36z"/>
<path d="M1103 1878 c-45 -22 -27 -38 42 -38 61 0 65 -1 65 -23 0 -12 -10 -43
-22 -67 -18 -36 -36 -52 -85 -79 -46 -25 -67 -44 -84 -76 -20 -37 -21 -44 -8
-70 17 -35 55 -47 96 -30 31 13 39 23 96 110 24 38 38 50 57 50 25 0 25 -1 22
-69 -3 -59 -1 -71 19 -92 21 -22 21 -26 9 -82 -17 -82 -9 -102 40 -102 70 0
194 20 226 36 18 9 40 31 50 49 15 29 16 39 5 76 -12 38 -11 44 8 68 46 57 54
73 54 113 0 55 -20 68 -97 67 -77 -1 -92 -7 -113 -46 -22 -40 -111 -143 -124
-143 -16 0 -10 64 12 131 27 81 44 116 81 158 26 30 28 35 15 48 -24 24 -56 6
-94 -55 -49 -78 -72 -102 -99 -102 -34 0 -36 13 -14 70 26 67 25 84 -5 98 -32
15 -122 14 -152 0z m518 -208 c10 -6 19 -19 19 -30 0 -30 -41 -70 -75 -73 -29
-2 -30 0 -29 37 1 28 8 45 24 58 26 21 34 22 61 8z m-491 -59 c0 -34 -23 -61
-51 -61 -26 0 -24 23 7 59 32 39 44 39 44 2z m440 -159 c0 -48 -24 -72 -72
-72 -21 0 -38 2 -38 5 0 3 10 26 21 50 39 83 89 92 89 17z m-146 30 c6 -11
-38 -107 -54 -117 -21 -13 -29 9 -15 48 19 56 55 92 69 69z"/>
<path d="M1555 584 c19 -47 27 -129 22 -244 -2 -69 -6 -132 -8 -140 -3 -13 9
-15 80 -12 96 3 118 12 136 55 11 27 11 37 -1 67 -15 35 -39 60 -58 60 -6 0
-1 -8 11 -18 32 -25 44 -65 32 -102 -13 -37 -36 -50 -84 -50 -78 0 -112 84
-56 140 l28 29 -30 3 -30 3 1 75 c2 96 -8 144 -32 148 -15 3 -17 0 -11 -14z"/>
<path d="M1875 583 c31 -72 31 -331 1 -377 l-16 -26 36 0 c33 0 36 2 30 22 -4
13 -9 97 -12 188 -6 191 -9 210 -30 210 -12 0 -14 -5 -9 -17z"/>
<path d="M140 406 c0 -110 -4 -195 -10 -207 -10 -17 -7 -19 21 -19 26 0 30 3
23 18 -5 9 -10 98 -12 197 -2 99 -7 184 -12 189 -7 7 -10 -59 -10 -178z"/>
<path d="M471 367 c-90 -52 -53 -187 51 -187 50 0 103 29 120 65 15 33 0 83
-33 108 -34 25 -106 32 -138 14z m108 -22 c36 -18 57 -65 42 -94 -37 -68 -153
-68 -181 0 -16 37 -5 66 33 90 38 23 68 24 106 4z"/>
<path d="M720 365 c13 -16 17 -127 6 -163 -7 -19 -4 -22 24 -22 30 0 30 0 14
25 -13 19 -15 37 -10 79 8 60 -4 96 -31 96 -13 0 -13 -3 -3 -15z"/>
<path d="M1030 372 c0 -4 5 -13 10 -18 6 -6 14 -43 19 -83 4 -45 13 -76 22
-82 19 -12 76 -11 84 1 4 6 -8 10 -28 10 -44 0 -53 12 -61 85 -9 79 -15 95
-32 95 -8 0 -14 -4 -14 -8z"/>
<path d="M1203 366 c13 -10 17 -28 17 -84 0 -80 6 -102 27 -102 11 0 13 5 8
18 -4 9 -10 44 -12 77 -6 93 -10 105 -36 105 -20 -1 -21 -2 -4 -14z"/>
<path d="M1350 372 c0 -4 6 -14 13 -21 16 -16 14 -136 -3 -156 -11 -13 -8 -15
19 -15 29 0 32 2 24 23 -21 58 6 157 42 157 8 0 15 5 15 10 0 14 -12 12 -37
-5 -18 -13 -22 -13 -33 0 -13 16 -40 20 -40 7z"/>
<path d="M2042 355 c-55 -46 -47 -142 14 -165 96 -37 192 31 164 115 -25 75
-118 101 -178 50z m138 -15 c13 -13 20 -33 20 -60 0 -53 -27 -80 -79 -80 -51
0 -101 39 -101 79 0 65 113 108 160 61z"/>
<path d="M2343 374 c-24 -6 -56 -44 -67 -82 -9 -26 24 -86 56 -103 13 -7 44
-9 84 -4 73 8 86 -3 64 -55 -23 -56 -54 -80 -105 -80 -28 0 -44 -4 -40 -10 9
-15 72 -12 104 5 44 22 61 70 70 202 4 65 7 119 5 121 -4 6 -149 11 -171 6z
m109 -41 c35 -33 36 -71 3 -107 -31 -34 -102 -37 -130 -6 -27 29 -24 99 5 122
34 27 88 23 122 -9z"/>
<path d="M271 359 c15 -6 30 -20 33 -32 12 -44 6 -110 -11 -129 -15 -17 -14
-18 22 -18 31 0 36 3 30 18 -4 9 -12 52 -17 95 l-11 77 -36 -1 c-35 -1 -35 -1
-10 -10z"/>
<path d="M863 363 c10 -3 22 -16 28 -29 12 -33 12 -110 -1 -135 -10 -17 -7
-19 21 -19 25 0 30 3 25 16 -4 9 -11 48 -16 87 -12 84 -14 87 -48 86 -18 -1
-21 -3 -9 -6z"/>
</g>
</svg>
